<mxfile host="app.diagrams.net" modified="2023-04-03T23:50:31.430Z" agent="Mozilla/5.0 (Windows NT 10.0; Win64; x64) AppleWebKit/537.36 (KHTML, like Gecko) Chrome/111.0.0.0 Safari/537.36" etag="LAIyBjEmwWFkz4zunx-G" version="21.1.4" type="device">
  <diagram name="PÃ¡gina-1" id="iBcvbDZOCa8Um3lGEtF8">
    <mxGraphModel dx="1434" dy="796" grid="1" gridSize="10" guides="1" tooltips="1" connect="1" arrows="1" fold="1" page="1" pageScale="1" pageWidth="827" pageHeight="1169" math="0" shadow="0">
      <root>
        <mxCell id="0" />
        <mxCell id="1" parent="0" />
        <mxCell id="A6VMbKDxrAghyx1dpZmK-1" style="edgeStyle=orthogonalEdgeStyle;rounded=0;orthogonalLoop=1;jettySize=auto;html=1;" edge="1" parent="1" source="A6VMbKDxrAghyx1dpZmK-2" target="A6VMbKDxrAghyx1dpZmK-4">
          <mxGeometry relative="1" as="geometry" />
        </mxCell>
        <mxCell id="A6VMbKDxrAghyx1dpZmK-2" value="" style="ellipse;whiteSpace=wrap;html=1;" vertex="1" parent="1">
          <mxGeometry x="600" y="10" width="120" height="60" as="geometry" />
        </mxCell>
        <mxCell id="A6VMbKDxrAghyx1dpZmK-3" value="INICIO" style="text;html=1;strokeColor=none;fillColor=none;align=center;verticalAlign=middle;whiteSpace=wrap;rounded=0;" vertex="1" parent="1">
          <mxGeometry x="630" y="25" width="60" height="30" as="geometry" />
        </mxCell>
        <mxCell id="A6VMbKDxrAghyx1dpZmK-4" value="" style="rhombus;whiteSpace=wrap;html=1;" vertex="1" parent="1">
          <mxGeometry x="615" y="140" width="90" height="70" as="geometry" />
        </mxCell>
        <mxCell id="A6VMbKDxrAghyx1dpZmK-5" value="esta enchufada" style="text;html=1;strokeColor=none;fillColor=none;align=center;verticalAlign=middle;whiteSpace=wrap;rounded=0;" vertex="1" parent="1">
          <mxGeometry x="630" y="160" width="60" height="30" as="geometry" />
        </mxCell>
        <mxCell id="A6VMbKDxrAghyx1dpZmK-6" value="" style="rounded=0;whiteSpace=wrap;html=1;" vertex="1" parent="1">
          <mxGeometry x="615" y="270" width="120" height="60" as="geometry" />
        </mxCell>
        <mxCell id="A6VMbKDxrAghyx1dpZmK-7" value="accionar tecla" style="text;html=1;strokeColor=none;fillColor=none;align=center;verticalAlign=middle;whiteSpace=wrap;rounded=0;" vertex="1" parent="1">
          <mxGeometry x="645" y="285" width="60" height="30" as="geometry" />
        </mxCell>
        <mxCell id="A6VMbKDxrAghyx1dpZmK-8" value="" style="rhombus;whiteSpace=wrap;html=1;" vertex="1" parent="1">
          <mxGeometry x="640" y="410" width="75" height="80" as="geometry" />
        </mxCell>
        <mxCell id="A6VMbKDxrAghyx1dpZmK-9" style="edgeStyle=orthogonalEdgeStyle;rounded=0;orthogonalLoop=1;jettySize=auto;html=1;" edge="1" parent="1" source="A6VMbKDxrAghyx1dpZmK-10">
          <mxGeometry relative="1" as="geometry">
            <mxPoint x="560" y="450" as="targetPoint" />
          </mxGeometry>
        </mxCell>
        <mxCell id="A6VMbKDxrAghyx1dpZmK-10" value="enciende foco" style="text;html=1;strokeColor=none;fillColor=none;align=center;verticalAlign=middle;whiteSpace=wrap;rounded=0;" vertex="1" parent="1">
          <mxGeometry x="650" y="435" width="60" height="30" as="geometry" />
        </mxCell>
        <mxCell id="A6VMbKDxrAghyx1dpZmK-11" value="" style="endArrow=none;html=1;rounded=0;" edge="1" parent="1">
          <mxGeometry width="50" height="50" relative="1" as="geometry">
            <mxPoint x="700" y="180" as="sourcePoint" />
            <mxPoint x="760" y="180" as="targetPoint" />
          </mxGeometry>
        </mxCell>
        <mxCell id="A6VMbKDxrAghyx1dpZmK-12" value="" style="endArrow=none;html=1;rounded=0;exitX=1;exitY=0;exitDx=0;exitDy=0;" edge="1" parent="1" source="A6VMbKDxrAghyx1dpZmK-6">
          <mxGeometry width="50" height="50" relative="1" as="geometry">
            <mxPoint x="710" y="230" as="sourcePoint" />
            <mxPoint x="760" y="180" as="targetPoint" />
          </mxGeometry>
        </mxCell>
        <mxCell id="A6VMbKDxrAghyx1dpZmK-13" value="" style="endArrow=none;html=1;rounded=0;" edge="1" parent="1">
          <mxGeometry width="50" height="50" relative="1" as="geometry">
            <mxPoint x="560" y="180" as="sourcePoint" />
            <mxPoint x="620" y="180" as="targetPoint" />
          </mxGeometry>
        </mxCell>
        <mxCell id="A6VMbKDxrAghyx1dpZmK-14" value="" style="rounded=0;whiteSpace=wrap;html=1;" vertex="1" parent="1">
          <mxGeometry x="440" y="210" width="120" height="60" as="geometry" />
        </mxCell>
        <mxCell id="A6VMbKDxrAghyx1dpZmK-15" value="enchufar" style="text;html=1;strokeColor=none;fillColor=none;align=center;verticalAlign=middle;whiteSpace=wrap;rounded=0;" vertex="1" parent="1">
          <mxGeometry x="470" y="225" width="60" height="30" as="geometry" />
        </mxCell>
        <mxCell id="A6VMbKDxrAghyx1dpZmK-16" value="" style="endArrow=none;html=1;rounded=0;" edge="1" parent="1">
          <mxGeometry width="50" height="50" relative="1" as="geometry">
            <mxPoint x="440" y="210" as="sourcePoint" />
            <mxPoint x="560" y="180" as="targetPoint" />
          </mxGeometry>
        </mxCell>
        <mxCell id="A6VMbKDxrAghyx1dpZmK-17" value="no" style="text;html=1;strokeColor=none;fillColor=none;align=center;verticalAlign=middle;whiteSpace=wrap;rounded=0;" vertex="1" parent="1">
          <mxGeometry x="560" y="160" width="60" height="30" as="geometry" />
        </mxCell>
        <mxCell id="A6VMbKDxrAghyx1dpZmK-18" value="si" style="text;html=1;strokeColor=none;fillColor=none;align=center;verticalAlign=middle;whiteSpace=wrap;rounded=0;" vertex="1" parent="1">
          <mxGeometry x="690" y="160" width="60" height="30" as="geometry" />
        </mxCell>
        <mxCell id="A6VMbKDxrAghyx1dpZmK-19" value="" style="endArrow=classic;html=1;rounded=0;entryX=0;entryY=1;entryDx=0;entryDy=0;" edge="1" parent="1" target="A6VMbKDxrAghyx1dpZmK-6">
          <mxGeometry width="50" height="50" relative="1" as="geometry">
            <mxPoint x="560" y="270" as="sourcePoint" />
            <mxPoint x="610" y="220" as="targetPoint" />
          </mxGeometry>
        </mxCell>
        <mxCell id="A6VMbKDxrAghyx1dpZmK-20" value="" style="endArrow=none;html=1;rounded=0;exitX=0.5;exitY=0;exitDx=0;exitDy=0;" edge="1" parent="1" source="A6VMbKDxrAghyx1dpZmK-8">
          <mxGeometry width="50" height="50" relative="1" as="geometry">
            <mxPoint x="630" y="380" as="sourcePoint" />
            <mxPoint x="680" y="330" as="targetPoint" />
          </mxGeometry>
        </mxCell>
        <mxCell id="A6VMbKDxrAghyx1dpZmK-21" value="no" style="text;html=1;strokeColor=none;fillColor=none;align=center;verticalAlign=middle;whiteSpace=wrap;rounded=0;" vertex="1" parent="1">
          <mxGeometry x="570" y="430" width="60" height="30" as="geometry" />
        </mxCell>
        <mxCell id="A6VMbKDxrAghyx1dpZmK-22" value="" style="rounded=0;whiteSpace=wrap;html=1;" vertex="1" parent="1">
          <mxGeometry x="440" y="420" width="120" height="60" as="geometry" />
        </mxCell>
        <mxCell id="A6VMbKDxrAghyx1dpZmK-23" value="cambiar foco" style="text;html=1;strokeColor=none;fillColor=none;align=center;verticalAlign=middle;whiteSpace=wrap;rounded=0;" vertex="1" parent="1">
          <mxGeometry x="470" y="435" width="60" height="30" as="geometry" />
        </mxCell>
        <mxCell id="A6VMbKDxrAghyx1dpZmK-24" value="" style="endArrow=classic;html=1;rounded=0;entryX=0;entryY=1;entryDx=0;entryDy=0;" edge="1" parent="1" target="A6VMbKDxrAghyx1dpZmK-6">
          <mxGeometry width="50" height="50" relative="1" as="geometry">
            <mxPoint x="440" y="420" as="sourcePoint" />
            <mxPoint x="490" y="370" as="targetPoint" />
          </mxGeometry>
        </mxCell>
        <mxCell id="A6VMbKDxrAghyx1dpZmK-25" value="funciona tecla" style="rhombus;whiteSpace=wrap;html=1;" vertex="1" parent="1">
          <mxGeometry x="350" y="520" width="90" height="90" as="geometry" />
        </mxCell>
        <mxCell id="A6VMbKDxrAghyx1dpZmK-26" value="" style="endArrow=none;html=1;rounded=0;exitX=0.5;exitY=0;exitDx=0;exitDy=0;" edge="1" parent="1" source="A6VMbKDxrAghyx1dpZmK-25">
          <mxGeometry width="50" height="50" relative="1" as="geometry">
            <mxPoint x="630" y="540" as="sourcePoint" />
            <mxPoint x="680" y="490" as="targetPoint" />
          </mxGeometry>
        </mxCell>
        <mxCell id="A6VMbKDxrAghyx1dpZmK-27" value="si" style="text;html=1;strokeColor=none;fillColor=none;align=center;verticalAlign=middle;whiteSpace=wrap;rounded=0;" vertex="1" parent="1">
          <mxGeometry x="570" y="540" width="60" height="30" as="geometry" />
        </mxCell>
        <mxCell id="A6VMbKDxrAghyx1dpZmK-28" value="" style="endArrow=none;html=1;rounded=0;exitX=1;exitY=0.5;exitDx=0;exitDy=0;" edge="1" parent="1" source="A6VMbKDxrAghyx1dpZmK-25">
          <mxGeometry width="50" height="50" relative="1" as="geometry">
            <mxPoint x="430" y="580" as="sourcePoint" />
            <mxPoint x="800" y="565" as="targetPoint" />
          </mxGeometry>
        </mxCell>
        <mxCell id="A6VMbKDxrAghyx1dpZmK-29" value="" style="endArrow=none;html=1;rounded=0;" edge="1" parent="1">
          <mxGeometry width="50" height="50" relative="1" as="geometry">
            <mxPoint x="710" y="450" as="sourcePoint" />
            <mxPoint x="800" y="450" as="targetPoint" />
          </mxGeometry>
        </mxCell>
        <mxCell id="A6VMbKDxrAghyx1dpZmK-30" value="si" style="text;html=1;strokeColor=none;fillColor=none;align=center;verticalAlign=middle;whiteSpace=wrap;rounded=0;" vertex="1" parent="1">
          <mxGeometry x="720" y="430" width="60" height="30" as="geometry" />
        </mxCell>
        <mxCell id="A6VMbKDxrAghyx1dpZmK-31" value="" style="endArrow=none;html=1;rounded=0;" edge="1" parent="1">
          <mxGeometry width="50" height="50" relative="1" as="geometry">
            <mxPoint x="290" y="560" as="sourcePoint" />
            <mxPoint x="350" y="560" as="targetPoint" />
          </mxGeometry>
        </mxCell>
        <mxCell id="A6VMbKDxrAghyx1dpZmK-32" value="no" style="text;html=1;strokeColor=none;fillColor=none;align=center;verticalAlign=middle;whiteSpace=wrap;rounded=0;" vertex="1" parent="1">
          <mxGeometry x="290" y="540" width="60" height="30" as="geometry" />
        </mxCell>
        <mxCell id="A6VMbKDxrAghyx1dpZmK-33" value="" style="rounded=0;whiteSpace=wrap;html=1;" vertex="1" parent="1">
          <mxGeometry x="280" y="350" width="120" height="60" as="geometry" />
        </mxCell>
        <mxCell id="A6VMbKDxrAghyx1dpZmK-34" value="cambiar tecla" style="text;html=1;strokeColor=none;fillColor=none;align=center;verticalAlign=middle;whiteSpace=wrap;rounded=0;" vertex="1" parent="1">
          <mxGeometry x="310" y="375" width="60" height="10" as="geometry" />
        </mxCell>
        <mxCell id="A6VMbKDxrAghyx1dpZmK-35" value="" style="endArrow=classic;html=1;rounded=0;entryX=0.375;entryY=1.023;entryDx=0;entryDy=0;entryPerimeter=0;" edge="1" parent="1" target="A6VMbKDxrAghyx1dpZmK-33">
          <mxGeometry width="50" height="50" relative="1" as="geometry">
            <mxPoint x="290" y="560" as="sourcePoint" />
            <mxPoint x="340" y="510" as="targetPoint" />
          </mxGeometry>
        </mxCell>
        <mxCell id="A6VMbKDxrAghyx1dpZmK-36" value="" style="endArrow=classic;html=1;rounded=0;" edge="1" parent="1">
          <mxGeometry width="50" height="50" relative="1" as="geometry">
            <mxPoint x="400" y="350" as="sourcePoint" />
            <mxPoint x="600" y="330" as="targetPoint" />
          </mxGeometry>
        </mxCell>
        <mxCell id="A6VMbKDxrAghyx1dpZmK-37" value="" style="ellipse;whiteSpace=wrap;html=1;" vertex="1" parent="1">
          <mxGeometry x="750" y="650" width="120" height="80" as="geometry" />
        </mxCell>
        <mxCell id="A6VMbKDxrAghyx1dpZmK-38" value="FIN" style="text;html=1;strokeColor=none;fillColor=none;align=center;verticalAlign=middle;whiteSpace=wrap;rounded=0;" vertex="1" parent="1">
          <mxGeometry x="780" y="670" width="60" height="30" as="geometry" />
        </mxCell>
        <mxCell id="A6VMbKDxrAghyx1dpZmK-39" value="" style="endArrow=none;html=1;rounded=0;entryX=0.418;entryY=-0.032;entryDx=0;entryDy=0;entryPerimeter=0;" edge="1" parent="1" target="A6VMbKDxrAghyx1dpZmK-37">
          <mxGeometry width="50" height="50" relative="1" as="geometry">
            <mxPoint x="800" y="450" as="sourcePoint" />
            <mxPoint x="850" y="400" as="targetPoint" />
          </mxGeometry>
        </mxCell>
        <mxCell id="A6VMbKDxrAghyx1dpZmK-40" value="Seudocodigo" style="text;html=1;strokeColor=none;fillColor=none;align=center;verticalAlign=middle;whiteSpace=wrap;rounded=0;" vertex="1" parent="1">
          <mxGeometry x="130" y="620" width="60" height="30" as="geometry" />
        </mxCell>
        <mxCell id="A6VMbKDxrAghyx1dpZmK-41" value="INICIO" style="text;html=1;strokeColor=none;fillColor=none;align=center;verticalAlign=middle;whiteSpace=wrap;rounded=0;" vertex="1" parent="1">
          <mxGeometry x="80" y="660" width="60" height="30" as="geometry" />
        </mxCell>
        <mxCell id="A6VMbKDxrAghyx1dpZmK-42" value="esta&amp;nbsp; enchufada" style="text;html=1;strokeColor=none;fillColor=none;align=center;verticalAlign=middle;whiteSpace=wrap;rounded=0;" vertex="1" parent="1">
          <mxGeometry x="100" y="690" width="60" height="30" as="geometry" />
        </mxCell>
        <mxCell id="A6VMbKDxrAghyx1dpZmK-43" value="no/si" style="text;html=1;strokeColor=none;fillColor=none;align=center;verticalAlign=middle;whiteSpace=wrap;rounded=0;" vertex="1" parent="1">
          <mxGeometry x="160" y="700" width="60" height="30" as="geometry" />
        </mxCell>
        <mxCell id="A6VMbKDxrAghyx1dpZmK-44" value="enchufar" style="text;html=1;strokeColor=none;fillColor=none;align=center;verticalAlign=middle;whiteSpace=wrap;rounded=0;" vertex="1" parent="1">
          <mxGeometry x="120" y="740" width="60" height="30" as="geometry" />
        </mxCell>
        <mxCell id="A6VMbKDxrAghyx1dpZmK-45" value="accionar tecla" style="text;html=1;strokeColor=none;fillColor=none;align=center;verticalAlign=middle;whiteSpace=wrap;rounded=0;" vertex="1" parent="1">
          <mxGeometry x="210" y="740" width="60" height="30" as="geometry" />
        </mxCell>
        <mxCell id="A6VMbKDxrAghyx1dpZmK-46" value="enciende foco" style="text;html=1;strokeColor=none;fillColor=none;align=center;verticalAlign=middle;whiteSpace=wrap;rounded=0;" vertex="1" parent="1">
          <mxGeometry x="110" y="800" width="60" height="30" as="geometry" />
        </mxCell>
        <mxCell id="A6VMbKDxrAghyx1dpZmK-47" value="no/si" style="text;html=1;strokeColor=none;fillColor=none;align=center;verticalAlign=middle;whiteSpace=wrap;rounded=0;" vertex="1" parent="1">
          <mxGeometry x="160" y="800" width="60" height="30" as="geometry" />
        </mxCell>
        <mxCell id="A6VMbKDxrAghyx1dpZmK-48" value="cambiar foco" style="text;html=1;strokeColor=none;fillColor=none;align=center;verticalAlign=middle;whiteSpace=wrap;rounded=0;" vertex="1" parent="1">
          <mxGeometry x="120" y="870" width="60" height="30" as="geometry" />
        </mxCell>
        <mxCell id="A6VMbKDxrAghyx1dpZmK-49" value="funcions tecla" style="text;html=1;strokeColor=none;fillColor=none;align=center;verticalAlign=middle;whiteSpace=wrap;rounded=0;" vertex="1" parent="1">
          <mxGeometry x="120" y="930" width="60" height="30" as="geometry" />
        </mxCell>
        <mxCell id="A6VMbKDxrAghyx1dpZmK-50" value="no/si" style="text;html=1;strokeColor=none;fillColor=none;align=center;verticalAlign=middle;whiteSpace=wrap;rounded=0;" vertex="1" parent="1">
          <mxGeometry x="170" y="930" width="60" height="30" as="geometry" />
        </mxCell>
        <mxCell id="A6VMbKDxrAghyx1dpZmK-51" value="cambiar tecla" style="text;html=1;strokeColor=none;fillColor=none;align=center;verticalAlign=middle;whiteSpace=wrap;rounded=0;" vertex="1" parent="1">
          <mxGeometry x="130" y="1000" width="60" height="30" as="geometry" />
        </mxCell>
        <mxCell id="A6VMbKDxrAghyx1dpZmK-52" value="FIN" style="text;html=1;strokeColor=none;fillColor=none;align=center;verticalAlign=middle;whiteSpace=wrap;rounded=0;" vertex="1" parent="1">
          <mxGeometry x="170" y="1060" width="60" height="30" as="geometry" />
        </mxCell>
      </root>
    </mxGraphModel>
  </diagram>
</mxfile>
